<mxfile host="app.diagrams.net" modified="2023-07-09T08:39:19.085Z" agent="Mozilla/5.0 (Macintosh; Intel Mac OS X 10.15; rv:109.0) Gecko/20100101 Firefox/114.0" etag="a3RubkmfJkmjQxh1yjdE" version="21.6.1" type="device" pages="7">
  <diagram id="C5RBs43oDa-KdzZeNtuy" name="Page-1">
    <mxGraphModel dx="1877" dy="1381" grid="1" gridSize="10" guides="1" tooltips="1" connect="1" arrows="1" fold="1" page="1" pageScale="1" pageWidth="827" pageHeight="1169" math="0" shadow="0">
      <root>
        <mxCell id="WIyWlLk6GJQsqaUBKTNV-0" />
        <mxCell id="WIyWlLk6GJQsqaUBKTNV-1" parent="WIyWlLk6GJQsqaUBKTNV-0" />
        <mxCell id="zkfFHV4jXpPFQw0GAbJ--51" value="Application" style="swimlane;fontStyle=1;childLayout=stackLayout;horizontal=1;startSize=26;horizontalStack=0;resizeParent=1;resizeLast=0;collapsible=1;marginBottom=0;rounded=0;shadow=0;strokeWidth=1;" parent="WIyWlLk6GJQsqaUBKTNV-1" vertex="1">
          <mxGeometry x="160" y="120" width="160" height="170" as="geometry">
            <mxRectangle x="20" y="80" width="160" height="26" as="alternateBounds" />
          </mxGeometry>
        </mxCell>
        <mxCell id="zkfFHV4jXpPFQw0GAbJ--52" value="id" style="shape=partialRectangle;top=0;left=0;right=0;bottom=1;align=left;verticalAlign=top;fillColor=none;spacingLeft=40;spacingRight=4;overflow=hidden;rotatable=0;points=[[0,0.5],[1,0.5]];portConstraint=eastwest;dropTarget=0;rounded=0;shadow=0;strokeWidth=1;fontStyle=4" parent="zkfFHV4jXpPFQw0GAbJ--51" vertex="1">
          <mxGeometry y="26" width="160" height="26" as="geometry" />
        </mxCell>
        <mxCell id="zkfFHV4jXpPFQw0GAbJ--53" value="PK" style="shape=partialRectangle;top=0;left=0;bottom=0;fillColor=none;align=left;verticalAlign=top;spacingLeft=4;spacingRight=4;overflow=hidden;rotatable=0;points=[];portConstraint=eastwest;part=1;" parent="zkfFHV4jXpPFQw0GAbJ--52" vertex="1" connectable="0">
          <mxGeometry width="36" height="26" as="geometry" />
        </mxCell>
        <mxCell id="zkfFHV4jXpPFQw0GAbJ--54" value="name&#xa;&#xa;status&#xa;&#xa;created_at&#xa;&#xa;finished_at" style="shape=partialRectangle;top=0;left=0;right=0;bottom=0;align=left;verticalAlign=top;fillColor=none;spacingLeft=40;spacingRight=4;overflow=hidden;rotatable=0;points=[[0,0.5],[1,0.5]];portConstraint=eastwest;dropTarget=0;rounded=0;shadow=0;strokeWidth=1;" parent="zkfFHV4jXpPFQw0GAbJ--51" vertex="1">
          <mxGeometry y="52" width="160" height="118" as="geometry" />
        </mxCell>
        <mxCell id="zkfFHV4jXpPFQw0GAbJ--55" value="" style="shape=partialRectangle;top=0;left=0;bottom=0;fillColor=none;align=left;verticalAlign=top;spacingLeft=4;spacingRight=4;overflow=hidden;rotatable=0;points=[];portConstraint=eastwest;part=1;" parent="zkfFHV4jXpPFQw0GAbJ--54" vertex="1" connectable="0">
          <mxGeometry width="36" height="118" as="geometry" />
        </mxCell>
        <mxCell id="zkfFHV4jXpPFQw0GAbJ--56" value="Group" style="swimlane;fontStyle=1;childLayout=stackLayout;horizontal=1;startSize=26;horizontalStack=0;resizeParent=1;resizeLast=0;collapsible=1;marginBottom=0;rounded=0;shadow=0;strokeWidth=1;" parent="WIyWlLk6GJQsqaUBKTNV-1" vertex="1">
          <mxGeometry x="400" y="120" width="190" height="170" as="geometry">
            <mxRectangle x="260" y="80" width="160" height="26" as="alternateBounds" />
          </mxGeometry>
        </mxCell>
        <mxCell id="zkfFHV4jXpPFQw0GAbJ--57" value="id" style="shape=partialRectangle;top=0;left=0;right=0;bottom=1;align=left;verticalAlign=top;fillColor=none;spacingLeft=40;spacingRight=4;overflow=hidden;rotatable=0;points=[[0,0.5],[1,0.5]];portConstraint=eastwest;dropTarget=0;rounded=0;shadow=0;strokeWidth=1;fontStyle=4" parent="zkfFHV4jXpPFQw0GAbJ--56" vertex="1">
          <mxGeometry y="26" width="190" height="26" as="geometry" />
        </mxCell>
        <mxCell id="zkfFHV4jXpPFQw0GAbJ--58" value="PK" style="shape=partialRectangle;top=0;left=0;bottom=0;fillColor=none;align=left;verticalAlign=top;spacingLeft=4;spacingRight=4;overflow=hidden;rotatable=0;points=[];portConstraint=eastwest;part=1;" parent="zkfFHV4jXpPFQw0GAbJ--57" vertex="1" connectable="0">
          <mxGeometry width="36" height="26" as="geometry" />
        </mxCell>
        <mxCell id="zkfFHV4jXpPFQw0GAbJ--59" value="appId (application_groups)&#xa;&#xa;name (U)" style="shape=partialRectangle;top=0;left=0;right=0;bottom=0;align=left;verticalAlign=top;fillColor=none;spacingLeft=40;spacingRight=4;overflow=hidden;rotatable=0;points=[[0,0.5],[1,0.5]];portConstraint=eastwest;dropTarget=0;rounded=0;shadow=0;strokeWidth=1;" parent="zkfFHV4jXpPFQw0GAbJ--56" vertex="1">
          <mxGeometry y="52" width="190" height="118" as="geometry" />
        </mxCell>
        <mxCell id="zkfFHV4jXpPFQw0GAbJ--60" value="FK1" style="shape=partialRectangle;top=0;left=0;bottom=0;fillColor=none;align=left;verticalAlign=top;spacingLeft=4;spacingRight=4;overflow=hidden;rotatable=0;points=[];portConstraint=eastwest;part=1;" parent="zkfFHV4jXpPFQw0GAbJ--59" vertex="1" connectable="0">
          <mxGeometry width="36" height="118" as="geometry" />
        </mxCell>
        <mxCell id="zkfFHV4jXpPFQw0GAbJ--63" value="" style="edgeStyle=orthogonalEdgeStyle;endArrow=ERzeroToMany;startArrow=ERmandOne;shadow=0;strokeWidth=1;endSize=8;startSize=8;" parent="WIyWlLk6GJQsqaUBKTNV-1" source="zkfFHV4jXpPFQw0GAbJ--52" target="zkfFHV4jXpPFQw0GAbJ--57" edge="1">
          <mxGeometry width="100" height="100" relative="1" as="geometry">
            <mxPoint x="310" y="390" as="sourcePoint" />
            <mxPoint x="410" y="290" as="targetPoint" />
          </mxGeometry>
        </mxCell>
        <mxCell id="zkfFHV4jXpPFQw0GAbJ--71" value="" style="edgeStyle=orthogonalEdgeStyle;endArrow=ERzeroToMany;startArrow=ERmandOne;shadow=0;strokeWidth=1;endSize=8;startSize=8;" parent="WIyWlLk6GJQsqaUBKTNV-1" source="zkfFHV4jXpPFQw0GAbJ--56" target="zkfFHV4jXpPFQw0GAbJ--64" edge="1">
          <mxGeometry width="100" height="100" relative="1" as="geometry">
            <mxPoint x="410" y="182" as="sourcePoint" />
            <mxPoint x="330" y="169" as="targetPoint" />
            <Array as="points" />
          </mxGeometry>
        </mxCell>
        <mxCell id="zkfFHV4jXpPFQw0GAbJ--64" value="Graph" style="swimlane;fontStyle=1;childLayout=stackLayout;horizontal=1;startSize=26;horizontalStack=0;resizeParent=1;resizeLast=0;collapsible=1;marginBottom=0;rounded=0;shadow=0;strokeWidth=1;" parent="WIyWlLk6GJQsqaUBKTNV-1" vertex="1">
          <mxGeometry x="680" y="120" width="160" height="104" as="geometry">
            <mxRectangle x="260" y="270" width="160" height="26" as="alternateBounds" />
          </mxGeometry>
        </mxCell>
        <mxCell id="zkfFHV4jXpPFQw0GAbJ--65" value="id" style="shape=partialRectangle;top=0;left=0;right=0;bottom=1;align=left;verticalAlign=top;fillColor=none;spacingLeft=40;spacingRight=4;overflow=hidden;rotatable=0;points=[[0,0.5],[1,0.5]];portConstraint=eastwest;dropTarget=0;rounded=0;shadow=0;strokeWidth=1;fontStyle=4" parent="zkfFHV4jXpPFQw0GAbJ--64" vertex="1">
          <mxGeometry y="26" width="160" height="26" as="geometry" />
        </mxCell>
        <mxCell id="zkfFHV4jXpPFQw0GAbJ--66" value="PK" style="shape=partialRectangle;top=0;left=0;bottom=0;fillColor=none;align=left;verticalAlign=top;spacingLeft=4;spacingRight=4;overflow=hidden;rotatable=0;points=[];portConstraint=eastwest;part=1;" parent="zkfFHV4jXpPFQw0GAbJ--65" vertex="1" connectable="0">
          <mxGeometry width="36" height="26" as="geometry" />
        </mxCell>
        <mxCell id="zkfFHV4jXpPFQw0GAbJ--67" value="OrderId" style="shape=partialRectangle;top=0;left=0;right=0;bottom=0;align=left;verticalAlign=top;fillColor=none;spacingLeft=40;spacingRight=4;overflow=hidden;rotatable=0;points=[[0,0.5],[1,0.5]];portConstraint=eastwest;dropTarget=0;rounded=0;shadow=0;strokeWidth=1;" parent="zkfFHV4jXpPFQw0GAbJ--64" vertex="1">
          <mxGeometry y="52" width="160" height="26" as="geometry" />
        </mxCell>
        <mxCell id="zkfFHV4jXpPFQw0GAbJ--68" value="FK1" style="shape=partialRectangle;top=0;left=0;bottom=0;fillColor=none;align=left;verticalAlign=top;spacingLeft=4;spacingRight=4;overflow=hidden;rotatable=0;points=[];portConstraint=eastwest;part=1;" parent="zkfFHV4jXpPFQw0GAbJ--67" vertex="1" connectable="0">
          <mxGeometry width="36" height="26" as="geometry" />
        </mxCell>
        <mxCell id="zkfFHV4jXpPFQw0GAbJ--69" value="Date" style="shape=partialRectangle;top=0;left=0;right=0;bottom=0;align=left;verticalAlign=top;fillColor=none;spacingLeft=40;spacingRight=4;overflow=hidden;rotatable=0;points=[[0,0.5],[1,0.5]];portConstraint=eastwest;dropTarget=0;rounded=0;shadow=0;strokeWidth=1;" parent="zkfFHV4jXpPFQw0GAbJ--64" vertex="1">
          <mxGeometry y="78" width="160" height="26" as="geometry" />
        </mxCell>
        <mxCell id="zkfFHV4jXpPFQw0GAbJ--70" value="" style="shape=partialRectangle;top=0;left=0;bottom=0;fillColor=none;align=left;verticalAlign=top;spacingLeft=4;spacingRight=4;overflow=hidden;rotatable=0;points=[];portConstraint=eastwest;part=1;" parent="zkfFHV4jXpPFQw0GAbJ--69" vertex="1" connectable="0">
          <mxGeometry width="36" height="26" as="geometry" />
        </mxCell>
      </root>
    </mxGraphModel>
  </diagram>
  <diagram id="ORtSDLtfGB1wWsw3fIhq" name="Page-2">
    <mxGraphModel dx="1557" dy="1144" grid="1" gridSize="10" guides="1" tooltips="1" connect="1" arrows="1" fold="1" page="1" pageScale="1" pageWidth="827" pageHeight="1169" math="0" shadow="0">
      <root>
        <mxCell id="T7VuWAmkqhxTFRGTSYYJ-0" />
        <mxCell id="T7VuWAmkqhxTFRGTSYYJ-1" parent="T7VuWAmkqhxTFRGTSYYJ-0" />
        <mxCell id="T7VuWAmkqhxTFRGTSYYJ-9" value="&lt;div style=&quot;font-size: 12px&quot; align=&quot;left&quot;&gt;&lt;font style=&quot;font-size: 12px&quot;&gt;1.Create a new scenario&lt;/font&gt;&lt;/div&gt;&lt;div style=&quot;font-size: 12px&quot; align=&quot;left&quot;&gt;&lt;font style=&quot;font-size: 12px&quot;&gt;7. Get status&lt;br&gt;&lt;/font&gt;&lt;/div&gt;&lt;div align=&quot;left&quot;&gt;&lt;br&gt;&lt;/div&gt;" style="edgeStyle=orthogonalEdgeStyle;rounded=0;orthogonalLoop=1;jettySize=auto;html=1;align=left;" parent="T7VuWAmkqhxTFRGTSYYJ-1" source="T7VuWAmkqhxTFRGTSYYJ-2" target="T7VuWAmkqhxTFRGTSYYJ-3" edge="1">
          <mxGeometry x="-1" y="-60" relative="1" as="geometry">
            <mxPoint as="offset" />
          </mxGeometry>
        </mxCell>
        <mxCell id="T7VuWAmkqhxTFRGTSYYJ-2" value="&lt;div&gt;CLI&lt;/div&gt;&lt;div&gt;Web UI&lt;/div&gt;&lt;div&gt;&lt;br&gt;&lt;/div&gt;&lt;div&gt;(HTTP)&lt;br&gt;&lt;/div&gt;" style="whiteSpace=wrap;html=1;aspect=fixed;" parent="T7VuWAmkqhxTFRGTSYYJ-1" vertex="1">
          <mxGeometry x="70" y="370" width="80" height="80" as="geometry" />
        </mxCell>
        <mxCell id="T7VuWAmkqhxTFRGTSYYJ-10" value="&lt;div style=&quot;font-size: 12px&quot; align=&quot;left&quot;&gt;&lt;font style=&quot;font-size: 12px&quot;&gt;3. Provision with the `executor`&lt;br&gt;5. Report with metrics&lt;/font&gt;&lt;/div&gt;" style="rounded=0;orthogonalLoop=1;jettySize=auto;html=1;startArrow=classic;startFill=1;align=left;" parent="T7VuWAmkqhxTFRGTSYYJ-1" source="T7VuWAmkqhxTFRGTSYYJ-3" target="T7VuWAmkqhxTFRGTSYYJ-5" edge="1">
          <mxGeometry x="-0.3524" y="45" relative="1" as="geometry">
            <mxPoint as="offset" />
          </mxGeometry>
        </mxCell>
        <mxCell id="T7VuWAmkqhxTFRGTSYYJ-11" style="edgeStyle=none;rounded=0;orthogonalLoop=1;jettySize=auto;html=1;startArrow=classic;startFill=1;" parent="T7VuWAmkqhxTFRGTSYYJ-1" source="T7VuWAmkqhxTFRGTSYYJ-3" target="LrZGIMUnAMeNUGyDcLrS-7" edge="1">
          <mxGeometry relative="1" as="geometry">
            <mxPoint x="500" y="410" as="targetPoint" />
          </mxGeometry>
        </mxCell>
        <mxCell id="T7VuWAmkqhxTFRGTSYYJ-15" style="edgeStyle=none;rounded=0;orthogonalLoop=1;jettySize=auto;html=1;startArrow=none;startFill=0;" parent="T7VuWAmkqhxTFRGTSYYJ-1" source="T7VuWAmkqhxTFRGTSYYJ-3" target="T7VuWAmkqhxTFRGTSYYJ-4" edge="1">
          <mxGeometry relative="1" as="geometry" />
        </mxCell>
        <mxCell id="T7VuWAmkqhxTFRGTSYYJ-3" value="Master" style="rounded=1;whiteSpace=wrap;html=1;strokeColor=#56517e;fillColor=#999999;" parent="T7VuWAmkqhxTFRGTSYYJ-1" vertex="1">
          <mxGeometry x="257" y="380" width="120" height="60" as="geometry" />
        </mxCell>
        <mxCell id="T7VuWAmkqhxTFRGTSYYJ-4" value="&lt;div&gt;&lt;br&gt;&lt;/div&gt;&lt;div&gt;SQLite3&lt;/div&gt;" style="shape=cylinder2;whiteSpace=wrap;html=1;boundedLbl=1;backgroundOutline=1;size=15;" parent="T7VuWAmkqhxTFRGTSYYJ-1" vertex="1">
          <mxGeometry x="287" y="470" width="60" height="70" as="geometry" />
        </mxCell>
        <mxCell id="T7VuWAmkqhxTFRGTSYYJ-13" style="edgeStyle=none;rounded=0;orthogonalLoop=1;jettySize=auto;html=1;startArrow=none;startFill=0;" parent="T7VuWAmkqhxTFRGTSYYJ-1" source="LrZGIMUnAMeNUGyDcLrS-0" target="T7VuWAmkqhxTFRGTSYYJ-8" edge="1">
          <mxGeometry relative="1" as="geometry" />
        </mxCell>
        <mxCell id="T7VuWAmkqhxTFRGTSYYJ-7" value="Agent" style="rounded=1;whiteSpace=wrap;html=1;strokeColor=#56517e;fillColor=#999999;" parent="T7VuWAmkqhxTFRGTSYYJ-1" vertex="1">
          <mxGeometry x="480" y="520" width="120" height="60" as="geometry" />
        </mxCell>
        <mxCell id="T7VuWAmkqhxTFRGTSYYJ-8" value="Target" style="shape=hexagon;perimeter=hexagonPerimeter2;whiteSpace=wrap;html=1;fixedSize=1;" parent="T7VuWAmkqhxTFRGTSYYJ-1" vertex="1">
          <mxGeometry x="840" y="370" width="120" height="80" as="geometry" />
        </mxCell>
        <mxCell id="T7VuWAmkqhxTFRGTSYYJ-16" value="&lt;div align=&quot;left&quot;&gt;2. Compile to a binary executor&lt;br&gt;6. Save metrics to DB&lt;/div&gt;" style="text;html=1;align=left;verticalAlign=middle;resizable=0;points=[];autosize=1;" parent="T7VuWAmkqhxTFRGTSYYJ-1" vertex="1">
          <mxGeometry x="210" y="340" width="180" height="30" as="geometry" />
        </mxCell>
        <mxCell id="T7VuWAmkqhxTFRGTSYYJ-17" value="4.Run the `executor` in different thread" style="text;html=1;align=center;verticalAlign=middle;resizable=0;points=[];autosize=1;" parent="T7VuWAmkqhxTFRGTSYYJ-1" vertex="1">
          <mxGeometry x="480" y="160" width="220" height="20" as="geometry" />
        </mxCell>
        <mxCell id="LrZGIMUnAMeNUGyDcLrS-4" value="One host" style="text;html=1;align=center;verticalAlign=middle;resizable=0;points=[];autosize=1;" parent="T7VuWAmkqhxTFRGTSYYJ-1" vertex="1">
          <mxGeometry x="600" y="270" width="60" height="20" as="geometry" />
        </mxCell>
        <mxCell id="LrZGIMUnAMeNUGyDcLrS-11" value="" style="group" parent="T7VuWAmkqhxTFRGTSYYJ-1" vertex="1" connectable="0">
          <mxGeometry x="460" y="190" width="330" height="80" as="geometry" />
        </mxCell>
        <mxCell id="LrZGIMUnAMeNUGyDcLrS-2" value="" style="rounded=0;whiteSpace=wrap;html=1;dashed=1;fillColor=none;fontStyle=1" parent="LrZGIMUnAMeNUGyDcLrS-11" vertex="1">
          <mxGeometry width="330" height="80" as="geometry" />
        </mxCell>
        <mxCell id="T7VuWAmkqhxTFRGTSYYJ-5" value="Agent" style="rounded=1;whiteSpace=wrap;html=1;strokeColor=#56517e;fillColor=#999999;" parent="LrZGIMUnAMeNUGyDcLrS-11" vertex="1">
          <mxGeometry x="20" y="10" width="120" height="60" as="geometry" />
        </mxCell>
        <mxCell id="LrZGIMUnAMeNUGyDcLrS-0" value="Executor" style="rounded=1;whiteSpace=wrap;html=1;strokeColor=#56517e;fillColor=#999999;" parent="LrZGIMUnAMeNUGyDcLrS-11" vertex="1">
          <mxGeometry x="200" y="10" width="120" height="60" as="geometry" />
        </mxCell>
        <mxCell id="LrZGIMUnAMeNUGyDcLrS-1" value="" style="edgeStyle=orthogonalEdgeStyle;rounded=0;orthogonalLoop=1;jettySize=auto;html=1;startArrow=classic;startFill=1;" parent="LrZGIMUnAMeNUGyDcLrS-11" source="T7VuWAmkqhxTFRGTSYYJ-5" target="LrZGIMUnAMeNUGyDcLrS-0" edge="1">
          <mxGeometry relative="1" as="geometry" />
        </mxCell>
        <mxCell id="LrZGIMUnAMeNUGyDcLrS-12" value="" style="group" parent="T7VuWAmkqhxTFRGTSYYJ-1" vertex="1" connectable="0">
          <mxGeometry x="460" y="370" width="330" height="100" as="geometry" />
        </mxCell>
        <mxCell id="LrZGIMUnAMeNUGyDcLrS-5" value="" style="rounded=0;whiteSpace=wrap;html=1;dashed=1;fillColor=none;fontStyle=1" parent="LrZGIMUnAMeNUGyDcLrS-12" vertex="1">
          <mxGeometry width="330" height="80" as="geometry" />
        </mxCell>
        <mxCell id="LrZGIMUnAMeNUGyDcLrS-7" value="Agent" style="rounded=1;whiteSpace=wrap;html=1;strokeColor=#56517e;fillColor=#999999;" parent="LrZGIMUnAMeNUGyDcLrS-12" vertex="1">
          <mxGeometry x="20" y="10" width="120" height="60" as="geometry" />
        </mxCell>
        <mxCell id="LrZGIMUnAMeNUGyDcLrS-9" value="Executor" style="rounded=1;whiteSpace=wrap;html=1;strokeColor=#56517e;fillColor=#999999;" parent="LrZGIMUnAMeNUGyDcLrS-12" vertex="1">
          <mxGeometry x="200" y="10" width="120" height="60" as="geometry" />
        </mxCell>
        <mxCell id="LrZGIMUnAMeNUGyDcLrS-6" value="" style="edgeStyle=orthogonalEdgeStyle;rounded=0;orthogonalLoop=1;jettySize=auto;html=1;startArrow=classic;startFill=1;" parent="LrZGIMUnAMeNUGyDcLrS-12" source="LrZGIMUnAMeNUGyDcLrS-7" target="LrZGIMUnAMeNUGyDcLrS-9" edge="1">
          <mxGeometry relative="1" as="geometry" />
        </mxCell>
        <mxCell id="LrZGIMUnAMeNUGyDcLrS-10" value="One host" style="text;html=1;align=center;verticalAlign=middle;resizable=0;points=[];autosize=1;" parent="LrZGIMUnAMeNUGyDcLrS-12" vertex="1">
          <mxGeometry x="140" y="80" width="60" height="20" as="geometry" />
        </mxCell>
        <mxCell id="LrZGIMUnAMeNUGyDcLrS-14" style="edgeStyle=orthogonalEdgeStyle;rounded=0;orthogonalLoop=1;jettySize=auto;html=1;startArrow=classic;startFill=1;" parent="T7VuWAmkqhxTFRGTSYYJ-1" source="LrZGIMUnAMeNUGyDcLrS-9" target="T7VuWAmkqhxTFRGTSYYJ-8" edge="1">
          <mxGeometry relative="1" as="geometry" />
        </mxCell>
      </root>
    </mxGraphModel>
  </diagram>
  <diagram id="ZEoHtMUMJ86J5bJZu43H" name="Page-3">
    <mxGraphModel dx="1557" dy="1144" grid="1" gridSize="10" guides="1" tooltips="1" connect="1" arrows="1" fold="1" page="1" pageScale="1" pageWidth="827" pageHeight="1169" math="0" shadow="0">
      <root>
        <mxCell id="TSovbSaYGxBbsdl81g1O-0" />
        <mxCell id="TSovbSaYGxBbsdl81g1O-1" parent="TSovbSaYGxBbsdl81g1O-0" />
        <mxCell id="TSovbSaYGxBbsdl81g1O-7" style="edgeStyle=orthogonalEdgeStyle;rounded=0;orthogonalLoop=1;jettySize=auto;html=1;entryX=0;entryY=0.5;entryDx=0;entryDy=0;" parent="TSovbSaYGxBbsdl81g1O-1" source="TSovbSaYGxBbsdl81g1O-2" target="TSovbSaYGxBbsdl81g1O-5" edge="1">
          <mxGeometry relative="1" as="geometry" />
        </mxCell>
        <mxCell id="TSovbSaYGxBbsdl81g1O-2" value="Agent" style="rounded=1;whiteSpace=wrap;html=1;strokeColor=#56517e;fillColor=#999999;" parent="TSovbSaYGxBbsdl81g1O-1" vertex="1">
          <mxGeometry x="220" y="240" width="120" height="60" as="geometry" />
        </mxCell>
        <mxCell id="TSovbSaYGxBbsdl81g1O-10" style="edgeStyle=orthogonalEdgeStyle;rounded=0;orthogonalLoop=1;jettySize=auto;html=1;" parent="TSovbSaYGxBbsdl81g1O-1" source="TSovbSaYGxBbsdl81g1O-3" target="TSovbSaYGxBbsdl81g1O-6" edge="1">
          <mxGeometry relative="1" as="geometry" />
        </mxCell>
        <mxCell id="TSovbSaYGxBbsdl81g1O-3" value="Executor" style="rounded=1;whiteSpace=wrap;html=1;strokeColor=#56517e;fillColor=#999999;" parent="TSovbSaYGxBbsdl81g1O-1" vertex="1">
          <mxGeometry x="510" y="240" width="120" height="60" as="geometry" />
        </mxCell>
        <mxCell id="TSovbSaYGxBbsdl81g1O-8" style="edgeStyle=orthogonalEdgeStyle;rounded=0;orthogonalLoop=1;jettySize=auto;html=1;entryX=0;entryY=0.5;entryDx=0;entryDy=0;" parent="TSovbSaYGxBbsdl81g1O-1" source="TSovbSaYGxBbsdl81g1O-5" target="TSovbSaYGxBbsdl81g1O-3" edge="1">
          <mxGeometry relative="1" as="geometry" />
        </mxCell>
        <mxCell id="TSovbSaYGxBbsdl81g1O-5" value="" style="ellipse;whiteSpace=wrap;html=1;aspect=fixed;" parent="TSovbSaYGxBbsdl81g1O-1" vertex="1">
          <mxGeometry x="410" y="220" width="30" height="30" as="geometry" />
        </mxCell>
        <mxCell id="TSovbSaYGxBbsdl81g1O-11" style="edgeStyle=orthogonalEdgeStyle;rounded=0;orthogonalLoop=1;jettySize=auto;html=1;" parent="TSovbSaYGxBbsdl81g1O-1" source="TSovbSaYGxBbsdl81g1O-6" target="TSovbSaYGxBbsdl81g1O-2" edge="1">
          <mxGeometry relative="1" as="geometry" />
        </mxCell>
        <mxCell id="TSovbSaYGxBbsdl81g1O-6" value="" style="ellipse;whiteSpace=wrap;html=1;aspect=fixed;" parent="TSovbSaYGxBbsdl81g1O-1" vertex="1">
          <mxGeometry x="410" y="280" width="30" height="30" as="geometry" />
        </mxCell>
        <mxCell id="TSovbSaYGxBbsdl81g1O-12" value="executor socket" style="text;html=1;align=center;verticalAlign=middle;resizable=0;points=[];autosize=1;" parent="TSovbSaYGxBbsdl81g1O-1" vertex="1">
          <mxGeometry x="375" y="190" width="100" height="20" as="geometry" />
        </mxCell>
        <mxCell id="TSovbSaYGxBbsdl81g1O-13" value="agent socket" style="text;html=1;align=center;verticalAlign=middle;resizable=0;points=[];autosize=1;" parent="TSovbSaYGxBbsdl81g1O-1" vertex="1">
          <mxGeometry x="385" y="320" width="80" height="20" as="geometry" />
        </mxCell>
      </root>
    </mxGraphModel>
  </diagram>
  <diagram id="cG_-FwoV5PhZwc4iJ5Jp" name="4 - local mode">
    <mxGraphModel dx="1877" dy="1381" grid="1" gridSize="10" guides="1" tooltips="1" connect="1" arrows="1" fold="1" page="1" pageScale="1" pageWidth="827" pageHeight="1169" math="0" shadow="0">
      <root>
        <mxCell id="UPK9L9nHXI58aTagDZ2k-0" />
        <mxCell id="UPK9L9nHXI58aTagDZ2k-1" parent="UPK9L9nHXI58aTagDZ2k-0" />
        <mxCell id="pkf6CUbO_QB4kRtadeMP-0" value="" style="edgeStyle=orthogonalEdgeStyle;rounded=0;orthogonalLoop=1;jettySize=auto;html=1;align=left;" parent="UPK9L9nHXI58aTagDZ2k-1" source="pkf6CUbO_QB4kRtadeMP-1" target="pkf6CUbO_QB4kRtadeMP-5" edge="1">
          <mxGeometry x="-0.661" y="-30" relative="1" as="geometry">
            <mxPoint as="offset" />
          </mxGeometry>
        </mxCell>
        <mxCell id="pkf6CUbO_QB4kRtadeMP-1" value="&lt;div&gt;CLI&lt;/div&gt;&lt;div&gt;Web UI&lt;/div&gt;&lt;div&gt;&lt;br&gt;&lt;/div&gt;&lt;div&gt;(HTTP)&lt;br&gt;&lt;/div&gt;" style="whiteSpace=wrap;html=1;aspect=fixed;" parent="UPK9L9nHXI58aTagDZ2k-1" vertex="1">
          <mxGeometry x="90" y="370" width="80" height="80" as="geometry" />
        </mxCell>
        <mxCell id="pkf6CUbO_QB4kRtadeMP-3" value="&lt;font style=&quot;font-size: 12px&quot;&gt;Function calls&lt;/font&gt;" style="edgeStyle=none;rounded=0;orthogonalLoop=1;jettySize=auto;html=1;startArrow=classic;startFill=1;" parent="UPK9L9nHXI58aTagDZ2k-1" source="pkf6CUbO_QB4kRtadeMP-5" target="pkf6CUbO_QB4kRtadeMP-10" edge="1">
          <mxGeometry relative="1" as="geometry" />
        </mxCell>
        <mxCell id="pkf6CUbO_QB4kRtadeMP-4" style="edgeStyle=none;rounded=0;orthogonalLoop=1;jettySize=auto;html=1;startArrow=none;startFill=0;" parent="UPK9L9nHXI58aTagDZ2k-1" source="pkf6CUbO_QB4kRtadeMP-5" target="pkf6CUbO_QB4kRtadeMP-6" edge="1">
          <mxGeometry relative="1" as="geometry" />
        </mxCell>
        <mxCell id="pkf6CUbO_QB4kRtadeMP-5" value="Master" style="rounded=1;whiteSpace=wrap;html=1;strokeColor=#56517e;fillColor=#999999;" parent="UPK9L9nHXI58aTagDZ2k-1" vertex="1">
          <mxGeometry x="257" y="380" width="120" height="60" as="geometry" />
        </mxCell>
        <mxCell id="pkf6CUbO_QB4kRtadeMP-6" value="&lt;div&gt;&lt;br&gt;&lt;/div&gt;&lt;div&gt;SQLite3&lt;/div&gt;" style="shape=cylinder2;whiteSpace=wrap;html=1;boundedLbl=1;backgroundOutline=1;size=15;" parent="UPK9L9nHXI58aTagDZ2k-1" vertex="1">
          <mxGeometry x="287" y="505" width="60" height="70" as="geometry" />
        </mxCell>
        <mxCell id="pkf6CUbO_QB4kRtadeMP-9" style="edgeStyle=none;rounded=0;orthogonalLoop=1;jettySize=auto;html=1;startArrow=none;startFill=0;" parent="UPK9L9nHXI58aTagDZ2k-1" source="pkf6CUbO_QB4kRtadeMP-19" target="pkf6CUbO_QB4kRtadeMP-12" edge="1">
          <mxGeometry relative="1" as="geometry" />
        </mxCell>
        <mxCell id="pkf6CUbO_QB4kRtadeMP-20" value="&lt;font style=&quot;font-size: 12px&quot;&gt;RPC over Unix socket&lt;/font&gt;" style="edgeStyle=orthogonalEdgeStyle;rounded=0;orthogonalLoop=1;jettySize=auto;html=1;startArrow=classic;startFill=1;" parent="UPK9L9nHXI58aTagDZ2k-1" source="pkf6CUbO_QB4kRtadeMP-10" target="pkf6CUbO_QB4kRtadeMP-19" edge="1">
          <mxGeometry relative="1" as="geometry" />
        </mxCell>
        <mxCell id="pkf6CUbO_QB4kRtadeMP-10" value="Agent" style="rounded=1;whiteSpace=wrap;html=1;strokeColor=#56517e;fillColor=#999999;" parent="UPK9L9nHXI58aTagDZ2k-1" vertex="1">
          <mxGeometry x="500" y="380" width="120" height="60" as="geometry" />
        </mxCell>
        <mxCell id="pkf6CUbO_QB4kRtadeMP-12" value="Target" style="shape=hexagon;perimeter=hexagonPerimeter2;whiteSpace=wrap;html=1;fixedSize=1;" parent="UPK9L9nHXI58aTagDZ2k-1" vertex="1">
          <mxGeometry x="680" y="500" width="120" height="80" as="geometry" />
        </mxCell>
        <mxCell id="pkf6CUbO_QB4kRtadeMP-19" value="Executor" style="rounded=1;whiteSpace=wrap;html=1;strokeColor=#56517e;fillColor=#999999;" parent="UPK9L9nHXI58aTagDZ2k-1" vertex="1">
          <mxGeometry x="500" y="510" width="120" height="60" as="geometry" />
        </mxCell>
      </root>
    </mxGraphModel>
  </diagram>
  <diagram id="Mh6C9LKlROq0dBHgPv__" name="5 - cloud mode">
    <mxGraphModel dx="1877" dy="1381" grid="1" gridSize="10" guides="1" tooltips="1" connect="1" arrows="1" fold="1" page="1" pageScale="1" pageWidth="827" pageHeight="1169" math="0" shadow="0">
      <root>
        <mxCell id="vUR8hu0QoLHbhQv-0sWJ-0" />
        <mxCell id="vUR8hu0QoLHbhQv-0sWJ-1" parent="vUR8hu0QoLHbhQv-0sWJ-0" />
        <mxCell id="vUR8hu0QoLHbhQv-0sWJ-2" value="" style="edgeStyle=orthogonalEdgeStyle;rounded=0;orthogonalLoop=1;jettySize=auto;html=1;align=left;" parent="vUR8hu0QoLHbhQv-0sWJ-1" source="vUR8hu0QoLHbhQv-0sWJ-3" target="vUR8hu0QoLHbhQv-0sWJ-6" edge="1">
          <mxGeometry x="-0.661" y="-30" relative="1" as="geometry">
            <mxPoint as="offset" />
          </mxGeometry>
        </mxCell>
        <mxCell id="vUR8hu0QoLHbhQv-0sWJ-3" value="&lt;div&gt;CLI&lt;/div&gt;&lt;div&gt;Web UI&lt;/div&gt;&lt;div&gt;&lt;br&gt;&lt;/div&gt;&lt;div&gt;(HTTP)&lt;br&gt;&lt;/div&gt;" style="whiteSpace=wrap;html=1;aspect=fixed;" parent="vUR8hu0QoLHbhQv-0sWJ-1" vertex="1">
          <mxGeometry x="90" y="370" width="80" height="80" as="geometry" />
        </mxCell>
        <mxCell id="vUR8hu0QoLHbhQv-0sWJ-4" value="gRPC" style="edgeStyle=none;rounded=0;orthogonalLoop=1;jettySize=auto;html=1;startArrow=classic;startFill=1;" parent="vUR8hu0QoLHbhQv-0sWJ-1" source="vUR8hu0QoLHbhQv-0sWJ-6" target="vUR8hu0QoLHbhQv-0sWJ-10" edge="1">
          <mxGeometry relative="1" as="geometry" />
        </mxCell>
        <mxCell id="vUR8hu0QoLHbhQv-0sWJ-5" style="edgeStyle=none;rounded=0;orthogonalLoop=1;jettySize=auto;html=1;startArrow=none;startFill=0;" parent="vUR8hu0QoLHbhQv-0sWJ-1" source="vUR8hu0QoLHbhQv-0sWJ-6" target="vUR8hu0QoLHbhQv-0sWJ-7" edge="1">
          <mxGeometry relative="1" as="geometry" />
        </mxCell>
        <mxCell id="vUR8hu0QoLHbhQv-0sWJ-15" value="gRPC" style="rounded=0;orthogonalLoop=1;jettySize=auto;html=1;startArrow=none;startFill=1;edgeStyle=orthogonalEdgeStyle;" parent="vUR8hu0QoLHbhQv-0sWJ-1" target="vUR8hu0QoLHbhQv-0sWJ-13" edge="1">
          <mxGeometry relative="1" as="geometry">
            <mxPoint x="317" y="360" as="sourcePoint" />
            <Array as="points">
              <mxPoint x="317" y="170" />
            </Array>
          </mxGeometry>
        </mxCell>
        <mxCell id="vUR8hu0QoLHbhQv-0sWJ-6" value="Master" style="rounded=1;whiteSpace=wrap;html=1;strokeColor=#56517e;fillColor=#999999;" parent="vUR8hu0QoLHbhQv-0sWJ-1" vertex="1">
          <mxGeometry x="257" y="380" width="120" height="60" as="geometry" />
        </mxCell>
        <mxCell id="vUR8hu0QoLHbhQv-0sWJ-7" value="&lt;div&gt;&lt;br&gt;&lt;/div&gt;&lt;div&gt;SQLite3&lt;/div&gt;" style="shape=cylinder2;whiteSpace=wrap;html=1;boundedLbl=1;backgroundOutline=1;size=15;" parent="vUR8hu0QoLHbhQv-0sWJ-1" vertex="1">
          <mxGeometry x="287" y="505" width="60" height="70" as="geometry" />
        </mxCell>
        <mxCell id="vUR8hu0QoLHbhQv-0sWJ-8" style="edgeStyle=none;rounded=0;orthogonalLoop=1;jettySize=auto;html=1;startArrow=none;startFill=0;" parent="vUR8hu0QoLHbhQv-0sWJ-1" source="vUR8hu0QoLHbhQv-0sWJ-12" target="vUR8hu0QoLHbhQv-0sWJ-11" edge="1">
          <mxGeometry relative="1" as="geometry" />
        </mxCell>
        <mxCell id="vUR8hu0QoLHbhQv-0sWJ-9" value="&lt;font style=&quot;font-size: 12px&quot;&gt;gRPC over Unix socket&lt;/font&gt;" style="edgeStyle=orthogonalEdgeStyle;rounded=0;orthogonalLoop=1;jettySize=auto;html=1;startArrow=classic;startFill=1;" parent="vUR8hu0QoLHbhQv-0sWJ-1" source="vUR8hu0QoLHbhQv-0sWJ-10" target="vUR8hu0QoLHbhQv-0sWJ-12" edge="1">
          <mxGeometry relative="1" as="geometry" />
        </mxCell>
        <mxCell id="vUR8hu0QoLHbhQv-0sWJ-10" value="Agent" style="rounded=1;whiteSpace=wrap;html=1;strokeColor=#56517e;fillColor=#999999;" parent="vUR8hu0QoLHbhQv-0sWJ-1" vertex="1">
          <mxGeometry x="500" y="380" width="120" height="60" as="geometry" />
        </mxCell>
        <mxCell id="vUR8hu0QoLHbhQv-0sWJ-11" value="Target" style="shape=hexagon;perimeter=hexagonPerimeter2;whiteSpace=wrap;html=1;fixedSize=1;" parent="vUR8hu0QoLHbhQv-0sWJ-1" vertex="1">
          <mxGeometry x="680" y="545" width="120" height="80" as="geometry" />
        </mxCell>
        <mxCell id="vUR8hu0QoLHbhQv-0sWJ-12" value="Executor" style="rounded=1;whiteSpace=wrap;html=1;strokeColor=#56517e;fillColor=#999999;" parent="vUR8hu0QoLHbhQv-0sWJ-1" vertex="1">
          <mxGeometry x="500" y="555" width="120" height="60" as="geometry" />
        </mxCell>
        <mxCell id="y0-ERvbiSDmcRTCL4mo4-1" style="edgeStyle=none;html=1;exitX=0.5;exitY=1;exitDx=0;exitDy=0;" parent="vUR8hu0QoLHbhQv-0sWJ-1" source="vUR8hu0QoLHbhQv-0sWJ-13" target="y0-ERvbiSDmcRTCL4mo4-0" edge="1">
          <mxGeometry relative="1" as="geometry" />
        </mxCell>
        <mxCell id="vUR8hu0QoLHbhQv-0sWJ-13" value="Agent" style="rounded=1;whiteSpace=wrap;html=1;strokeColor=#56517e;fillColor=#999999;" parent="vUR8hu0QoLHbhQv-0sWJ-1" vertex="1">
          <mxGeometry x="500" y="140" width="120" height="60" as="geometry" />
        </mxCell>
        <mxCell id="y0-ERvbiSDmcRTCL4mo4-2" style="edgeStyle=orthogonalEdgeStyle;html=1;entryX=0.5;entryY=0;entryDx=0;entryDy=0;" parent="vUR8hu0QoLHbhQv-0sWJ-1" source="y0-ERvbiSDmcRTCL4mo4-0" target="vUR8hu0QoLHbhQv-0sWJ-11" edge="1">
          <mxGeometry relative="1" as="geometry" />
        </mxCell>
        <mxCell id="y0-ERvbiSDmcRTCL4mo4-0" value="Executor" style="rounded=1;whiteSpace=wrap;html=1;strokeColor=#56517e;fillColor=#999999;" parent="vUR8hu0QoLHbhQv-0sWJ-1" vertex="1">
          <mxGeometry x="500" y="250" width="120" height="60" as="geometry" />
        </mxCell>
        <mxCell id="y0-ERvbiSDmcRTCL4mo4-4" value="" style="rounded=0;orthogonalLoop=1;jettySize=auto;html=1;startArrow=classic;startFill=1;endArrow=none;" parent="vUR8hu0QoLHbhQv-0sWJ-1" source="vUR8hu0QoLHbhQv-0sWJ-6" target="y0-ERvbiSDmcRTCL4mo4-3" edge="1">
          <mxGeometry relative="1" as="geometry">
            <mxPoint x="342.1379310344828" y="380" as="sourcePoint" />
            <mxPoint x="534.8620689655172" y="150" as="targetPoint" />
          </mxGeometry>
        </mxCell>
        <mxCell id="y0-ERvbiSDmcRTCL4mo4-3" value="server" style="text;html=1;align=center;verticalAlign=middle;resizable=0;points=[];autosize=1;strokeColor=none;fillColor=none;" parent="vUR8hu0QoLHbhQv-0sWJ-1" vertex="1">
          <mxGeometry x="287" y="310" width="60" height="30" as="geometry" />
        </mxCell>
        <mxCell id="y0-ERvbiSDmcRTCL4mo4-5" value="client" style="text;html=1;align=center;verticalAlign=middle;resizable=0;points=[];autosize=1;strokeColor=none;fillColor=none;" parent="vUR8hu0QoLHbhQv-0sWJ-1" vertex="1">
          <mxGeometry x="480" y="210" width="50" height="30" as="geometry" />
        </mxCell>
        <mxCell id="y0-ERvbiSDmcRTCL4mo4-6" value="server" style="text;html=1;align=center;verticalAlign=middle;resizable=0;points=[];autosize=1;strokeColor=none;fillColor=none;" parent="vUR8hu0QoLHbhQv-0sWJ-1" vertex="1">
          <mxGeometry x="550" y="525" width="60" height="30" as="geometry" />
        </mxCell>
        <mxCell id="y0-ERvbiSDmcRTCL4mo4-7" value="client" style="text;html=1;align=center;verticalAlign=middle;resizable=0;points=[];autosize=1;strokeColor=none;fillColor=none;" parent="vUR8hu0QoLHbhQv-0sWJ-1" vertex="1">
          <mxGeometry x="555" y="440" width="50" height="30" as="geometry" />
        </mxCell>
      </root>
    </mxGraphModel>
  </diagram>
  <diagram id="fXqTrOGQYPyCiz9y4Xre" name="compile-scenario">
    <mxGraphModel dx="1877" dy="1381" grid="1" gridSize="10" guides="1" tooltips="1" connect="1" arrows="1" fold="1" page="1" pageScale="1" pageWidth="850" pageHeight="1100" math="0" shadow="0">
      <root>
        <mxCell id="cpU4nPJRbwqZVZnkdioI-0" />
        <mxCell id="cpU4nPJRbwqZVZnkdioI-1" parent="cpU4nPJRbwqZVZnkdioI-0" />
        <mxCell id="cpU4nPJRbwqZVZnkdioI-10" style="edgeStyle=orthogonalEdgeStyle;rounded=0;orthogonalLoop=1;jettySize=auto;html=1;entryX=0;entryY=0.5;entryDx=0;entryDy=0;" parent="cpU4nPJRbwqZVZnkdioI-1" source="cpU4nPJRbwqZVZnkdioI-2" target="cpU4nPJRbwqZVZnkdioI-6" edge="1">
          <mxGeometry relative="1" as="geometry" />
        </mxCell>
        <mxCell id="cpU4nPJRbwqZVZnkdioI-2" value="scenario.go" style="rounded=1;whiteSpace=wrap;html=1;" parent="cpU4nPJRbwqZVZnkdioI-1" vertex="1">
          <mxGeometry x="360" y="230" width="110" height="40" as="geometry" />
        </mxCell>
        <mxCell id="cpU4nPJRbwqZVZnkdioI-7" style="edgeStyle=orthogonalEdgeStyle;rounded=0;orthogonalLoop=1;jettySize=auto;html=1;entryX=0;entryY=0.5;entryDx=0;entryDy=0;" parent="cpU4nPJRbwqZVZnkdioI-1" source="cpU4nPJRbwqZVZnkdioI-3" target="cpU4nPJRbwqZVZnkdioI-6" edge="1">
          <mxGeometry relative="1" as="geometry" />
        </mxCell>
        <mxCell id="cpU4nPJRbwqZVZnkdioI-3" value="template.go" style="rounded=1;whiteSpace=wrap;html=1;" parent="cpU4nPJRbwqZVZnkdioI-1" vertex="1">
          <mxGeometry x="360" y="170" width="110" height="40" as="geometry" />
        </mxCell>
        <mxCell id="cpU4nPJRbwqZVZnkdioI-9" style="edgeStyle=orthogonalEdgeStyle;rounded=0;orthogonalLoop=1;jettySize=auto;html=1;" parent="cpU4nPJRbwqZVZnkdioI-1" source="cpU4nPJRbwqZVZnkdioI-4" target="cpU4nPJRbwqZVZnkdioI-6" edge="1">
          <mxGeometry relative="1" as="geometry" />
        </mxCell>
        <mxCell id="cpU4nPJRbwqZVZnkdioI-4" value="go.mod" style="rounded=1;whiteSpace=wrap;html=1;dashed=1;" parent="cpU4nPJRbwqZVZnkdioI-1" vertex="1">
          <mxGeometry x="360" y="290" width="110" height="40" as="geometry" />
        </mxCell>
        <mxCell id="cpU4nPJRbwqZVZnkdioI-11" style="edgeStyle=orthogonalEdgeStyle;rounded=0;orthogonalLoop=1;jettySize=auto;html=1;entryX=0;entryY=0.5;entryDx=0;entryDy=0;" parent="cpU4nPJRbwqZVZnkdioI-1" source="cpU4nPJRbwqZVZnkdioI-5" target="cpU4nPJRbwqZVZnkdioI-6" edge="1">
          <mxGeometry relative="1" as="geometry" />
        </mxCell>
        <mxCell id="cpU4nPJRbwqZVZnkdioI-5" value="go.mod" style="rounded=1;whiteSpace=wrap;html=1;dashed=1;" parent="cpU4nPJRbwqZVZnkdioI-1" vertex="1">
          <mxGeometry x="360" y="350" width="110" height="40" as="geometry" />
        </mxCell>
        <mxCell id="cpU4nPJRbwqZVZnkdioI-6" value="Executor" style="rounded=1;whiteSpace=wrap;html=1;" parent="cpU4nPJRbwqZVZnkdioI-1" vertex="1">
          <mxGeometry x="560" y="260" width="110" height="40" as="geometry" />
        </mxCell>
        <mxCell id="cpU4nPJRbwqZVZnkdioI-12" value="tùy chọn" style="rounded=1;whiteSpace=wrap;html=1;dashed=1;" parent="cpU4nPJRbwqZVZnkdioI-1" vertex="1">
          <mxGeometry x="730" y="350" width="110" height="40" as="geometry" />
        </mxCell>
      </root>
    </mxGraphModel>
  </diagram>
  <diagram id="UZZ_r2pv6X8iHH3YRCHd" name="job fsm">
    <mxGraphModel dx="1877" dy="1381" grid="1" gridSize="10" guides="1" tooltips="1" connect="1" arrows="1" fold="1" page="1" pageScale="1" pageWidth="827" pageHeight="1169" math="0" shadow="0">
      <root>
        <mxCell id="0" />
        <mxCell id="1" parent="0" />
        <mxCell id="CFwoni7iwsZvlNfd_upS-3" value="" style="edgeStyle=orthogonalEdgeStyle;rounded=0;orthogonalLoop=1;jettySize=auto;html=1;" edge="1" parent="1" source="CFwoni7iwsZvlNfd_upS-1" target="CFwoni7iwsZvlNfd_upS-2">
          <mxGeometry relative="1" as="geometry" />
        </mxCell>
        <mxCell id="CFwoni7iwsZvlNfd_upS-1" value="Pending" style="ellipse;whiteSpace=wrap;html=1;" vertex="1" parent="1">
          <mxGeometry x="260" y="535" width="80" height="50" as="geometry" />
        </mxCell>
        <mxCell id="CFwoni7iwsZvlNfd_upS-5" value="" style="edgeStyle=orthogonalEdgeStyle;rounded=0;orthogonalLoop=1;jettySize=auto;html=1;" edge="1" parent="1" source="CFwoni7iwsZvlNfd_upS-2" target="CFwoni7iwsZvlNfd_upS-4">
          <mxGeometry relative="1" as="geometry" />
        </mxCell>
        <mxCell id="CFwoni7iwsZvlNfd_upS-20" style="edgeStyle=orthogonalEdgeStyle;rounded=0;orthogonalLoop=1;jettySize=auto;html=1;entryX=0;entryY=0.5;entryDx=0;entryDy=0;" edge="1" parent="1" source="CFwoni7iwsZvlNfd_upS-2" target="CFwoni7iwsZvlNfd_upS-13">
          <mxGeometry relative="1" as="geometry">
            <Array as="points">
              <mxPoint x="460" y="455" />
            </Array>
          </mxGeometry>
        </mxCell>
        <mxCell id="CFwoni7iwsZvlNfd_upS-21" style="edgeStyle=orthogonalEdgeStyle;rounded=0;orthogonalLoop=1;jettySize=auto;html=1;entryX=0;entryY=0.5;entryDx=0;entryDy=0;" edge="1" parent="1" source="CFwoni7iwsZvlNfd_upS-2" target="CFwoni7iwsZvlNfd_upS-11">
          <mxGeometry relative="1" as="geometry">
            <Array as="points">
              <mxPoint x="460" y="665" />
            </Array>
          </mxGeometry>
        </mxCell>
        <mxCell id="CFwoni7iwsZvlNfd_upS-2" value="Compiling" style="ellipse;whiteSpace=wrap;html=1;" vertex="1" parent="1">
          <mxGeometry x="420" y="535" width="80" height="50" as="geometry" />
        </mxCell>
        <mxCell id="CFwoni7iwsZvlNfd_upS-7" value="" style="edgeStyle=orthogonalEdgeStyle;rounded=0;orthogonalLoop=1;jettySize=auto;html=1;" edge="1" parent="1" source="CFwoni7iwsZvlNfd_upS-4" target="CFwoni7iwsZvlNfd_upS-6">
          <mxGeometry relative="1" as="geometry" />
        </mxCell>
        <mxCell id="CFwoni7iwsZvlNfd_upS-16" style="edgeStyle=orthogonalEdgeStyle;rounded=0;orthogonalLoop=1;jettySize=auto;html=1;" edge="1" parent="1" source="CFwoni7iwsZvlNfd_upS-4" target="CFwoni7iwsZvlNfd_upS-13">
          <mxGeometry relative="1" as="geometry">
            <Array as="points">
              <mxPoint x="620" y="455" />
            </Array>
          </mxGeometry>
        </mxCell>
        <mxCell id="CFwoni7iwsZvlNfd_upS-17" style="edgeStyle=orthogonalEdgeStyle;rounded=0;orthogonalLoop=1;jettySize=auto;html=1;entryX=0;entryY=0.5;entryDx=0;entryDy=0;" edge="1" parent="1" source="CFwoni7iwsZvlNfd_upS-4" target="CFwoni7iwsZvlNfd_upS-11">
          <mxGeometry relative="1" as="geometry">
            <Array as="points">
              <mxPoint x="620" y="665" />
            </Array>
          </mxGeometry>
        </mxCell>
        <mxCell id="CFwoni7iwsZvlNfd_upS-4" value="Provisioning" style="ellipse;whiteSpace=wrap;html=1;" vertex="1" parent="1">
          <mxGeometry x="580" y="535" width="80" height="50" as="geometry" />
        </mxCell>
        <mxCell id="CFwoni7iwsZvlNfd_upS-15" style="edgeStyle=orthogonalEdgeStyle;rounded=0;orthogonalLoop=1;jettySize=auto;html=1;" edge="1" parent="1" source="CFwoni7iwsZvlNfd_upS-6" target="CFwoni7iwsZvlNfd_upS-13">
          <mxGeometry relative="1" as="geometry" />
        </mxCell>
        <mxCell id="CFwoni7iwsZvlNfd_upS-18" style="edgeStyle=orthogonalEdgeStyle;rounded=0;orthogonalLoop=1;jettySize=auto;html=1;" edge="1" parent="1" source="CFwoni7iwsZvlNfd_upS-6" target="CFwoni7iwsZvlNfd_upS-11">
          <mxGeometry relative="1" as="geometry" />
        </mxCell>
        <mxCell id="CFwoni7iwsZvlNfd_upS-19" style="edgeStyle=orthogonalEdgeStyle;rounded=0;orthogonalLoop=1;jettySize=auto;html=1;" edge="1" parent="1" source="CFwoni7iwsZvlNfd_upS-6" target="CFwoni7iwsZvlNfd_upS-8">
          <mxGeometry relative="1" as="geometry" />
        </mxCell>
        <mxCell id="CFwoni7iwsZvlNfd_upS-6" value="Running" style="ellipse;whiteSpace=wrap;html=1;" vertex="1" parent="1">
          <mxGeometry x="730" y="535" width="80" height="50" as="geometry" />
        </mxCell>
        <mxCell id="CFwoni7iwsZvlNfd_upS-22" style="edgeStyle=orthogonalEdgeStyle;rounded=0;orthogonalLoop=1;jettySize=auto;html=1;entryX=0.5;entryY=0;entryDx=0;entryDy=0;" edge="1" parent="1" source="CFwoni7iwsZvlNfd_upS-8" target="CFwoni7iwsZvlNfd_upS-1">
          <mxGeometry relative="1" as="geometry">
            <Array as="points">
              <mxPoint x="910" y="400" />
              <mxPoint x="300" y="400" />
            </Array>
          </mxGeometry>
        </mxCell>
        <mxCell id="CFwoni7iwsZvlNfd_upS-23" style="edgeStyle=orthogonalEdgeStyle;rounded=0;orthogonalLoop=1;jettySize=auto;html=1;entryX=0.5;entryY=1;entryDx=0;entryDy=0;" edge="1" parent="1" source="CFwoni7iwsZvlNfd_upS-8">
          <mxGeometry relative="1" as="geometry">
            <mxPoint x="910" y="600" as="sourcePoint" />
            <mxPoint x="300" y="600" as="targetPoint" />
            <Array as="points">
              <mxPoint x="910" y="715" />
              <mxPoint x="300" y="715" />
            </Array>
          </mxGeometry>
        </mxCell>
        <mxCell id="CFwoni7iwsZvlNfd_upS-8" value="Finished" style="ellipse;whiteSpace=wrap;html=1;" vertex="1" parent="1">
          <mxGeometry x="870" y="535" width="80" height="50" as="geometry" />
        </mxCell>
        <mxCell id="CFwoni7iwsZvlNfd_upS-11" value="Canceled" style="ellipse;whiteSpace=wrap;html=1;" vertex="1" parent="1">
          <mxGeometry x="730" y="640" width="80" height="50" as="geometry" />
        </mxCell>
        <mxCell id="CFwoni7iwsZvlNfd_upS-13" value="Error" style="ellipse;whiteSpace=wrap;html=1;" vertex="1" parent="1">
          <mxGeometry x="730" y="430" width="80" height="50" as="geometry" />
        </mxCell>
      </root>
    </mxGraphModel>
  </diagram>
</mxfile>
